Coordinates
version=1
nRows=14
nColumns=36
inDegrees=yes

Units are S.I. units (second, meters, Newtons, ...)
If the header above contains a line with 'inDegrees', this indicates whether rotational values are in degrees (yes) or radians (no).

endheader
time	pelvis_tilt	pelvis_list	pelvis_rotation	pelvis_tx	pelvis_ty	pelvis_tz	hip_flexion_r	hip_adduction_r	hip_rotation_r	knee_angle_r	knee_angle_r_beta	ankle_angle_r	subtalar_angle_r	mtp_angle_r	hip_flexion_l	hip_adduction_l	hip_rotation_l	knee_angle_l	knee_angle_l_beta	ankle_angle_l	subtalar_angle_l	mtp_angle_l	lumbar_extension	lumbar_bending	lumbar_rotation	arm_flex_r	arm_add_r	arm_rot_r	elbow_flex_r	pro_sup_r	arm_flex_l	arm_add_l	arm_rot_l	elbow_flex_l	pro_sup_l
      1.92000000	    -24.17013977	      5.30245973	     -5.02392837	     -0.24663304	      0.65071446	     -0.59905337	     83.96056251	      2.30617535	     17.02163116	    100.72101759	      1.75791338	     28.65080577	    -20.80344709	     -7.49941715	     85.96742592	     -1.58855895	      2.10780314	    100.09015313	      1.74690272	     26.71941551	    -19.86082534	     -7.49941715	    -22.62144195	     -3.96419824	     -0.57999371	    100.44418013	      1.75087375	     21.89125005	    118.49696356	    114.48225422	    109.54387452	      0.14770672	     27.37526458	    113.36511142	    110.19915992
      1.93000000	    -23.86583124	      5.26529477	     -5.17281351	     -0.24182308	      0.66068052	     -0.59900201	     82.26710456	      2.42690974	     17.05018595	     99.28089004	      1.73277842	     28.26766158	    -21.03047159	     -7.49942340	     84.42314129	     -1.58923209	      2.10774363	     98.87025533	      1.72561149	     25.99006546	    -19.56232915	     -7.49942340	    -21.27791046	     -4.02016331	     -0.14086714	    103.81850093	      0.44700522	     22.03827300	    117.73346925	    114.35470900	    112.78865493	     -1.43461928	     28.23839448	    113.07201722	    110.12365589
      1.94000000	    -23.49327090	      5.22742018	     -5.31725230	     -0.23666897	      0.67133398	     -0.59894186	     80.38906720	      2.50388094	     17.10708059	     97.68484095	      1.70492210	     27.71257449	    -21.44278386	     -7.49943064	     82.69975743	     -1.65555828	      2.01028269	     97.48452051	      1.70142585	     25.15354344	    -19.30714313	     -7.49943064	    -19.93801075	     -4.08175443	      0.22541934	    106.98882546	     -0.77184706	     22.20532130	    116.35815890	    113.99575830	    115.93701005	     -3.04124938	     29.33341744	    112.46060076	    109.88208692
      1.95000000	    -23.00253543	      5.19934250	     -5.45323681	     -0.23124393	      0.68288879	     -0.59896538	     78.29885347	      2.49020602	     17.16004447	     95.88090458	      1.67343747	     26.66159287	    -22.28854926	     -7.49944272	     80.70739668	     -1.67901999	      1.84446960	     95.86808423	      1.67321372	     24.24175815	    -19.40993951	     -7.49944272	    -18.73842457	     -4.18104330	      0.38825631	    109.99579052	     -1.94081844	     22.45152657	    114.64336639	    113.61829737	    119.20672515	     -4.73198448	     30.77225669	    111.56314167	    109.44813824
      1.96000000	    -22.58198351	      5.18995690	     -5.60658777	     -0.22573339	      0.69459039	     -0.59898083	     76.28903869	      2.46918815	     17.28822993	     94.04642268	      1.64141973	     25.89810390	    -22.50501390	     -7.49944950	     78.76838809	     -1.76800569	      1.61860254	     94.20339978	      1.64415949	     23.41864604	    -19.16534384	     -7.49944950	    -17.35776577	     -4.32586987	      0.82280783	    113.03199695	     -3.53712907	     22.99662276	    112.31536895	    113.30323918	    122.24748735	     -6.02637330	     32.23309402	    110.08208298	    109.12673763
      1.97000000	    -21.99434272	      5.20896202	     -5.69685754	     -0.21996432	      0.70727463	     -0.59891890	     74.00968337	      2.34581976	     17.39313140	     92.01911390	      1.60603651	     24.29952655	    -23.77537877	     -7.49946789	     76.50525375	     -1.81263021	      1.25796448	     92.26221756	      1.61027947	     22.28614054	    -19.58876277	     -7.49946789	    -16.24969466	     -4.52136779	      0.96372159	    116.03682015	     -4.91282244	     23.78679271	    109.94699329	    112.96369249	    125.64345007	     -7.38689596	     34.25531659	    108.32321767	    108.57082975
      1.98000000	    -21.63838986	      5.15247775	     -5.77753171	     -0.21413228	      0.71994256	     -0.59872980	     71.92926735	      2.24732509	     17.41911601	     89.89437736	      1.56895286	     23.62539845	    -23.79900703	     -7.49947349	     74.46777732	     -1.97188951	      0.98403178	     90.25175287	      1.57519024	     21.39834070	    -19.15105003	     -7.49947349	    -14.68524008	     -4.59943561	      1.54150035	    118.85068888	     -6.46737454	     25.13220887	    106.69064146	    112.63791518	    128.40874959	     -8.05596357	     36.10353308	    105.77392643	    108.28529463
      1.99000000	    -21.05999975	      5.03230526	     -5.82778065	     -0.20810562	      0.73348737	     -0.59824937	     69.53752809	      2.11668670	     17.32271039	     87.66956700	      1.53012260	     22.66948032	    -24.15426811	     -7.49947980	     72.14086054	     -2.20962495	      0.65932239	     88.12491450	      1.53806991	     20.36612935	    -18.87130369	     -7.49947980	    -13.51290938	     -4.70398203	      1.91979010	    121.99925478	     -8.07919992	     27.16052848	    103.25683730	    112.28627330	    131.76046820	     -8.75333101	     38.50639976	    102.66878520	    108.01252482
      2.00000000	    -20.56501623	      4.84884411	     -5.85384774	     -0.20205731	      0.74772546	     -0.59787117	     67.12352874	      1.96944651	     17.07015837	     85.06379436	      1.48464329	     20.11829643	    -26.18151899	     -7.49950556	     69.81256457	     -2.42947834	      0.40884844	     85.74552344	      1.49654170	     18.69709309	    -19.42533956	     -7.49950556	    -12.38930003	     -4.73306529	      2.17312509	    125.30643344	     -9.45919122	     29.38995057	     99.83809115	    111.42028070	    135.44129883	     -9.35464574	     41.36281277	     99.36356072	    107.66842668
      2.01000000	    -20.21102192	      4.55505666	     -5.83787694	     -0.19593901	      0.76212817	     -0.59787591	     64.78203720	      1.74633811	     16.68365002	     82.32745963	      1.43688524	     19.15727730	    -26.16520955	     -7.49951404	     67.61864847	     -2.65465684	      0.30370264	     83.31888511	      1.45418887	     17.54711712	    -18.89480720	     -7.49951404	    -11.00054583	     -4.53850860	      2.63554195	    128.58295687	    -10.69265831	     31.92054595	     95.57582451	    110.97463187	    138.56446075	     -9.48615785	     43.84663337	     95.35481798	    107.32209877
      2.02000000	    -19.88605747	      4.18686808	     -5.79195590	     -0.18968360	      0.77722373	     -0.59809963	     62.33545861	      1.49577439	     16.16656967	     79.27570878	      1.38362214	     17.56764936	    -26.69593602	     -7.49952529	     65.37146348	     -2.84217967	      0.29817283	     80.68342123	      1.40819135	     16.03784553	    -18.70571054	     -7.49952529	     -9.61302190	     -4.22659592	      3.16179964	    131.89340595	    -11.80494731	     34.78444746	     90.91834575	    110.41263065	    141.51666730	     -9.33906851	     46.39799399	     90.96083112	    106.94612806
      2.03000000	    -19.64921518	      3.72922306	     -5.73218355	     -0.18335022	      0.79285962	     -0.59851658	     59.86597560	      1.30300553	     15.58742193	     75.93469953	      1.32531052	     15.07237102	    -27.85081919	     -7.49954591	     63.19087440	     -3.08241450	      0.33863337	     77.88610477	      1.35936897	     13.89768520	    -18.87058732	     -7.49954591	     -8.10394136	     -3.77473999	      3.92460431	    135.19326968	    -12.79426079	     37.96792528	     85.71050234	    109.73300390	    143.89479149	     -8.64198050	     48.37128678	     85.78571725	    106.73035729
      2.04000000	    -19.31654707	      3.19391172	     -5.67494664	     -0.17687783	      0.80944639	     -0.59906048	     57.19354470	      1.08554648	     14.91056852	     72.33054892	      1.26240623	     12.58726943	    -28.56372162	     -7.49957634	     60.84445888	     -3.37985949	      0.38241710	     74.89623269	      1.30718586	     11.53378848	    -19.01753335	     -7.49957634	     -6.72352746	     -3.21305496	      4.81953987	    138.41463874	    -13.49934082	     41.36844569	     79.90177475	    109.35267678	    145.92742948	     -7.60876656	     49.88300574	     79.84075258	    107.13822443
      2.05000000	    -18.84593357	      2.61380762	     -5.64705409	     -0.17036866	      0.82698248	     -0.59966386	     54.29440623	      0.87741861	     14.20834759	     68.48616733	      1.19530911	     10.02833551	    -28.81013462	     -7.49966077	     58.28438683	     -3.72489623	      0.40775827	     71.70482812	      1.25148534	      8.99050306	    -19.14010485	     -7.49966077	     -5.62448168	     -2.53263601	      5.63951828	    141.61535468	    -13.61682261	     44.66180026	     73.42413454	    109.45183659	    147.96503685	     -6.63979693	     51.13635265	     73.32847872	    108.88711515
